<svg width="21" height="22" viewBox="0 0 21 22" fill="none" xmlns="http://www.w3.org/2000/svg">
<path d="M18.9 11.6599C18.7397 11.4774 18.6513 11.2428 18.6513 10.9999C18.6513 10.757 18.7397 10.5224 18.9 10.3399L20.18 8.89989C20.3211 8.74256 20.4086 8.5446 20.4302 8.3344C20.4518 8.12421 20.4062 7.91258 20.3 7.72989L18.3 4.2699C18.1949 4.08742 18.0349 3.94277 17.8428 3.85658C17.6506 3.77039 17.4362 3.74705 17.23 3.7899L15.35 4.1699C15.1108 4.21932 14.8617 4.17948 14.6499 4.0579C14.438 3.93631 14.278 3.74138 14.2 3.5099L13.59 1.6799C13.5229 1.48127 13.3951 1.30876 13.2246 1.18674C13.0542 1.06471 12.8496 0.999354 12.64 0.999895H8.64C8.42194 0.988513 8.20614 1.04882 8.02557 1.17161C7.845 1.2944 7.70958 1.47291 7.64 1.6799L7.08 3.5099C7.002 3.74138 6.84198 3.93631 6.63012 4.0579C6.41826 4.17948 6.16922 4.21932 5.93 4.1699L4 3.7899C3.80455 3.76228 3.6053 3.79312 3.42735 3.87853C3.2494 3.96395 3.1007 4.10012 3 4.2699L1 7.72989C0.891163 7.91054 0.842225 8.12098 0.860186 8.33112C0.878146 8.54126 0.962085 8.74034 1.1 8.89989L2.37 10.3399C2.53032 10.5224 2.61874 10.757 2.61874 10.9999C2.61874 11.2428 2.53032 11.4774 2.37 11.6599L1.1 13.0999C0.962085 13.2595 0.878146 13.4585 0.860186 13.6687C0.842225 13.8788 0.891163 14.0892 1 14.2699L3 17.7299C3.1051 17.9124 3.26512 18.057 3.45726 18.1432C3.64939 18.2294 3.86383 18.2527 4.07 18.2099L5.95 17.8299C6.18922 17.7805 6.43826 17.8203 6.65012 17.9419C6.86198 18.0635 7.022 18.2584 7.1 18.4899L7.71 20.3199C7.77958 20.5269 7.915 20.7054 8.09557 20.8282C8.27614 20.951 8.49194 21.0113 8.71 20.9999H12.71C12.9196 21.0004 13.1242 20.9351 13.2946 20.8131C13.4651 20.691 13.5929 20.5185 13.66 20.3199L14.27 18.4899C14.348 18.2584 14.508 18.0635 14.7199 17.9419C14.9317 17.8203 15.1808 17.7805 15.42 17.8299L17.3 18.2099C17.5062 18.2527 17.7206 18.2294 17.9128 18.1432C18.1049 18.057 18.2649 17.9124 18.37 17.7299L20.37 14.2699C20.4762 14.0872 20.5218 13.8756 20.5002 13.6654C20.4786 13.4552 20.3911 13.2572 20.25 13.0999L18.9 11.6599ZM17.41 12.9999L18.21 13.8999L16.93 16.1199L15.75 15.8799C15.0298 15.7327 14.2806 15.855 13.6446 16.2237C13.0086 16.5924 12.5301 17.1817 12.3 17.8799L11.92 18.9999H9.36L9 17.8599C8.76986 17.1617 8.29138 16.5724 7.65541 16.2037C7.01943 15.835 6.27022 15.7127 5.55 15.8599L4.37 16.0999L3.07 13.8899L3.87 12.9899C4.36196 12.4399 4.63394 11.7278 4.63394 10.9899C4.63394 10.252 4.36196 9.53992 3.87 8.98989L3.07 8.0899L4.35 5.88989L5.53 6.1299C6.25022 6.27712 6.99943 6.15478 7.63541 5.78609C8.27138 5.41741 8.74986 4.82805 8.98 4.1299L9.36 2.9999H11.92L12.3 4.13989C12.5301 4.83805 13.0086 5.42741 13.6446 5.79609C14.2806 6.16478 15.0298 6.28712 15.75 6.13989L16.93 5.8999L18.21 8.11989L17.41 9.0199C16.9236 9.56866 16.655 10.2766 16.655 11.0099C16.655 11.7432 16.9236 12.4511 17.41 12.9999ZM10.64 6.9999C9.84888 6.9999 9.07552 7.23449 8.41772 7.67402C7.75992 8.11354 7.24724 8.73826 6.94448 9.46916C6.64173 10.2001 6.56252 11.0043 6.71686 11.7803C6.8712 12.5562 7.25217 13.2689 7.81158 13.8283C8.37099 14.3877 9.08372 14.7687 9.85964 14.923C10.6356 15.0774 11.4398 14.9982 12.1707 14.6954C12.9016 14.3927 13.5264 13.88 13.9659 13.2222C14.4054 12.5644 14.64 11.791 14.64 10.9999C14.64 9.93903 14.2186 8.92161 13.4684 8.17147C12.7183 7.42132 11.7009 6.9999 10.64 6.9999ZM10.64 12.9999C10.2444 12.9999 9.85776 12.8826 9.52886 12.6628C9.19996 12.4431 8.94362 12.1307 8.79224 11.7653C8.64087 11.3998 8.60126 10.9977 8.67843 10.6097C8.7556 10.2218 8.94608 9.86539 9.22579 9.58568C9.50549 9.30598 9.86186 9.11549 10.2498 9.03832C10.6378 8.96115 11.0399 9.00076 11.4054 9.15214C11.7708 9.30351 12.0832 9.55986 12.3029 9.88875C12.5227 10.2177 12.64 10.6043 12.64 10.9999C12.64 11.5303 12.4293 12.039 12.0542 12.4141C11.6791 12.7892 11.1704 12.9999 10.64 12.9999Z" fill="#7D7B7B"/>
</svg>
